<svg width="24" height="24" viewBox="0 0 24 24" fill="none" xmlns="http://www.w3.org/2000/svg">
<g clip-path="url(#clip0)">
<path d="M23.2493 11.2504H13.7495C13.3355 11.2504 12.9995 10.9144 12.9995 10.5004C12.9995 10.0864 13.3355 9.75043 13.7495 9.75043H23.2493C23.6632 9.75043 23.9992 10.0864 23.9992 10.5004C23.9992 10.9144 23.6632 11.2504 23.2493 11.2504Z" fill="black"/>
<path d="M19.4993 15.0003C19.3072 15.0003 19.1153 14.9272 18.9692 14.7804C18.6763 14.4873 18.6763 14.0123 18.9692 13.7193L22.1892 10.4995L18.9692 7.27952C18.6763 6.98656 18.6763 6.5116 18.9692 6.21864C19.2624 5.92549 19.7373 5.92549 20.0303 6.21864L23.7802 9.96853C24.0731 10.2615 24.0731 10.7364 23.7802 11.0294L20.0303 14.7793C19.8833 14.9272 19.6914 15.0003 19.4993 15.0003Z" fill="black"/>
<path d="M7.99981 24C7.78577 24 7.58271 23.97 7.37983 23.907L1.3619 21.902C0.543074 21.616 0 20.853 0 20.0002V2.00073C0 0.897738 0.897006 0.000732422 2 0.000732422C2.21386 0.000732422 2.41692 0.0307608 2.61997 0.0937471L8.63773 2.09869C9.45673 2.38469 9.99963 3.14767 9.99963 4.00055V22C9.99963 23.103 9.1028 24 7.99981 24ZM2 1.50069C1.72498 1.50069 1.49995 1.72572 1.49995 2.00073V20.0002C1.49995 20.2131 1.64295 20.411 1.84693 20.4821L7.83667 22.4781C7.8797 22.492 7.93573 22.5 7.99981 22.5C8.27483 22.5 8.49967 22.275 8.49967 22V4.00055C8.49967 3.7876 8.35667 3.58967 8.1527 3.51863L2.16296 1.52266C2.11993 1.50874 2.0639 1.50069 2 1.50069Z" fill="black"/>
<path d="M15.2494 8.00054C14.8355 8.00054 14.4995 7.66456 14.4995 7.25057V2.75071C14.4995 2.0617 13.9386 1.50069 13.2496 1.50069H1.99998C1.58599 1.50069 1.25 1.1647 1.25 0.750709C1.25 0.33672 1.58599 0.000732422 1.99998 0.000732422H13.2496C14.7666 0.000732422 15.9994 1.23373 15.9994 2.75071V7.25057C15.9994 7.66456 15.6634 8.00054 15.2494 8.00054Z" fill="black"/>
<path d="M13.2497 21.0001H9.24973C8.83574 21.0001 8.49976 20.6641 8.49976 20.2501C8.49976 19.8361 8.83574 19.5001 9.24973 19.5001H13.2497C13.9387 19.5001 14.4996 18.9391 14.4996 18.2501V13.7502C14.4996 13.3363 14.8356 13.0003 15.2495 13.0003C15.6635 13.0003 15.9995 13.3363 15.9995 13.7502V18.2501C15.9995 19.7671 14.7667 21.0001 13.2497 21.0001Z" fill="black"/>
</g>
<defs>
<clipPath id="clip0">
<rect width="24" height="24" fill="white"/>
</clipPath>
</defs>
</svg>
