<svg width="24" height="24" viewBox="0 0 24 24" fill="none" xmlns="http://www.w3.org/2000/svg">
<path d="M9.95 18.2927L7.12202 21.1207C5.94959 22.2931 4.05094 22.2931 2.8795 21.1209C1.70783 19.9492 1.70783 18.0504 2.87927 16.8789L8.53622 11.222C9.70766 10.0505 11.6065 10.0505 12.7779 11.222C13.1684 11.6125 13.8016 11.6125 14.1921 11.222C14.5826 10.8315 14.5826 10.1983 14.1921 9.80778C12.2396 7.85527 9.07452 7.85527 7.12202 9.80778L1.46511 15.4647C-0.487395 17.4173 -0.487395 20.5824 1.46511 22.5349C3.41739 24.4884 6.58273 24.4884 8.53627 22.5349L11.3642 19.7069C11.7548 19.3164 11.7548 18.6832 11.3642 18.2927C10.9737 17.9022 10.3405 17.9022 9.95 18.2927Z" fill="black"/>
<path d="M22.5354 8.53492C24.4879 6.58241 24.4879 3.4173 22.5354 1.46479C20.5829 -0.487675 17.4179 -0.487675 15.4645 1.46455L12.0713 4.85775C11.6807 5.24826 11.6807 5.88144 12.0713 6.27196C12.4618 6.66247 13.0949 6.66247 13.4855 6.27196L16.8784 2.87899C18.0507 1.7075 19.9497 1.7075 21.1212 2.87899C22.2926 4.05043 22.2926 5.94927 21.1212 7.12071L14.8992 13.3426C13.7278 14.5141 11.829 14.5141 10.6575 13.3426C10.267 12.9521 9.63383 12.9521 9.24332 13.3426C8.85281 13.7332 8.85281 14.3663 9.24332 14.7568C11.1958 16.7094 14.3609 16.7094 16.3134 14.7568L22.5354 8.53492Z" fill="black"/>
<path d="M18.7078 17.2932C18.3173 16.9027 17.6841 16.9027 17.2936 17.2932C16.9031 17.6837 16.9031 18.3169 17.2936 18.7074L20.2926 21.7064C20.6831 22.0969 21.3163 22.0969 21.7068 21.7064C22.0973 21.3159 22.0973 20.6827 21.7068 20.2922L18.7078 17.2932Z" fill="black"/>
<path d="M5.29438 6.70835C5.68489 7.09886 6.31807 7.09886 6.70859 6.70835C7.0991 6.31784 7.0991 5.68466 6.70859 5.29415L3.7066 2.29217C3.31609 1.90166 2.68291 1.90166 2.2924 2.29217C1.90188 2.68268 1.90188 3.31586 2.2924 3.70637L5.29438 6.70835Z" fill="black"/>
<path d="M23 14.9998H20C19.4477 14.9998 19 15.4475 19 15.9998C19 16.5521 19.4477 16.9998 20 16.9998H23C23.5522 16.9998 23.9999 16.5521 23.9999 15.9998C23.9999 15.4475 23.5522 14.9998 23 14.9998Z" fill="black"/>
<path d="M8.00022 4.99996C8.55249 4.99996 9.00019 4.55226 9.00019 3.99998V1.00002C9.00019 0.447698 8.55249 0 8.00022 0C7.44794 0 7.00024 0.447698 7.00024 0.999973V3.99994C7.0002 4.55221 7.44794 4.99996 8.00022 4.99996Z" fill="black"/>
<path d="M1.00022 8.99989H4.00018C4.55246 8.99989 5.00015 8.55219 5.00015 7.99992C5.00015 7.44764 4.55246 6.99995 4.00018 6.99995H1.00022C0.447942 6.99995 0.000244141 7.44764 0.000244141 7.99992C0.000244141 8.55219 0.447942 8.99989 1.00022 8.99989Z" fill="black"/>
<path d="M16 18.9998C15.4477 18.9998 15 19.4475 15 19.9997V22.9997C15 23.552 15.4477 23.9997 16 23.9997C16.5522 23.9997 16.9999 23.552 16.9999 22.9997V19.9997C17 19.4475 16.5522 18.9998 16 18.9998Z" fill="black"/>
</svg>
