<svg width="24" height="24" viewBox="0 0 24 24" fill="none" xmlns="http://www.w3.org/2000/svg">
<path d="M23.9936 13.2554C23.9936 13.1067 23.9135 12.9696 23.7841 12.8965L23.784 12.8964C23.7836 12.8962 23.7832 12.8959 23.7828 12.8957C23.7589 12.8799 23.7335 12.8662 23.7068 12.855L18.2311 10.4079V3.04387C18.2311 3.04031 18.231 3.0368 18.2309 3.03328C18.2309 3.03211 18.2309 3.03098 18.2308 3.02981C18.2308 3.02747 18.2307 3.02508 18.2306 3.02273C18.2305 3.02133 18.2305 3.01992 18.2304 3.01852C18.2302 3.01552 18.23 3.01247 18.2298 3.00947C18.2297 3.00736 18.2295 3.0053 18.2293 3.00323C18.2292 3.00216 18.2291 3.00103 18.229 2.99995C18.2202 2.90611 18.1838 2.82028 18.128 2.75072C18.1272 2.74973 18.1264 2.74875 18.1256 2.74777C18.1245 2.74641 18.1233 2.74505 18.1222 2.74369C18.1211 2.74228 18.1199 2.74088 18.1187 2.73947C18.1178 2.73844 18.1169 2.73741 18.116 2.73642C18.1139 2.73398 18.1118 2.73155 18.1096 2.72916C18.1091 2.72869 18.1087 2.72822 18.1083 2.72775C18.1063 2.72559 18.1043 2.72344 18.1023 2.72133C18.1018 2.72081 18.1013 2.72034 18.1008 2.71983C18.0986 2.71748 18.0963 2.71514 18.094 2.71284C18.0939 2.7127 18.0937 2.71256 18.0936 2.71242C18.091 2.70984 18.0884 2.70727 18.0857 2.70473C18.0856 2.70464 18.0855 2.70459 18.0855 2.7045C18.083 2.7022 18.0806 2.69991 18.0781 2.69766C18.0776 2.69723 18.0772 2.69681 18.0767 2.69639C18.0745 2.69438 18.0722 2.69231 18.0699 2.69034C18.0695 2.69002 18.0691 2.68964 18.0687 2.68931C18.0661 2.68711 18.0635 2.68491 18.0609 2.68275C18.0602 2.68214 18.0594 2.68153 18.0587 2.68097C18.057 2.67956 18.0552 2.67811 18.0534 2.6767C18.0522 2.67577 18.051 2.67483 18.0498 2.67389C18.0485 2.67286 18.0472 2.67183 18.0458 2.6708C18.0146 2.64703 17.9803 2.62711 17.9436 2.61169L12.1912 0.0407813C12.0695 -0.0135937 11.9304 -0.0135937 11.8087 0.0407813L6.05613 2.61159C6.01947 2.62702 5.98521 2.64694 5.95399 2.6707C5.95263 2.67173 5.95127 2.67277 5.94996 2.6738C5.94874 2.67473 5.94757 2.67567 5.94639 2.67661C5.94461 2.67802 5.94288 2.67942 5.9411 2.68088C5.94035 2.68148 5.9396 2.68205 5.93889 2.68266C5.93627 2.68481 5.93369 2.68702 5.93111 2.68922C5.93074 2.68955 5.93036 2.68987 5.92994 2.69025C5.92764 2.69222 5.92535 2.69428 5.9231 2.6963C5.92263 2.69672 5.92216 2.69714 5.92169 2.69756C5.91921 2.69981 5.91677 2.70211 5.91433 2.70441C5.91424 2.7045 5.91419 2.70455 5.9141 2.70464C5.91143 2.70717 5.9088 2.70975 5.90622 2.71233C5.90608 2.71247 5.90594 2.71261 5.9058 2.71275C5.9035 2.71505 5.90125 2.71739 5.899 2.71973C5.89854 2.72025 5.89802 2.72072 5.89755 2.72123C5.89553 2.72334 5.89352 2.7255 5.89155 2.72766C5.89113 2.72812 5.89066 2.72859 5.89024 2.72906C5.88808 2.73145 5.88593 2.73389 5.88377 2.73633C5.88288 2.73731 5.88203 2.73834 5.88114 2.73937C5.87997 2.74078 5.87875 2.74219 5.87758 2.74359C5.87646 2.74495 5.87533 2.74631 5.87421 2.74767C5.87341 2.74866 5.87261 2.74964 5.87186 2.75063C5.81599 2.82019 5.77957 2.90597 5.77085 2.99986C5.77075 3.00094 5.77066 3.00206 5.77057 3.00314C5.77038 3.00525 5.77019 3.00731 5.77005 3.00937C5.76982 3.01237 5.76963 3.01542 5.76949 3.01842C5.76939 3.01983 5.76935 3.02123 5.7693 3.02264C5.76921 3.02498 5.76911 3.02738 5.76902 3.02972C5.76897 3.03089 5.76897 3.03202 5.76893 3.03319C5.76883 3.0367 5.76878 3.04027 5.76878 3.04378V10.4078L0.293082 12.8549C0.292941 12.855 0.292801 12.855 0.29266 12.8551C0.119504 12.9277 0.00634766 13.097 0.00634766 13.2847V13.287V20.9548C0.00634766 21.1396 0.115004 21.3073 0.283848 21.3827C0.283848 21.3827 6.04694 23.9582 6.04727 23.9583L6.04999 23.9595C6.16868 24.0132 6.30471 24.0135 6.42358 23.9602L6.42878 23.9579L12 21.4682L17.5712 23.958C17.5712 23.958 17.5784 23.9607 17.5901 23.9651C17.7075 24.0098 17.8381 24.0073 17.9536 23.958C17.9536 23.958 17.9536 23.9579 17.9536 23.9579L23.7161 21.3827C23.8848 21.3073 23.9936 21.1396 23.9936 20.9548V13.287V13.2554ZM17.7624 15.3488L13.1488 13.287L17.7624 11.2252L22.376 13.287L17.7624 15.3488ZM12 7.47942C12.2588 7.47942 12.4687 7.26956 12.4687 7.01072V5.92308L17.2937 3.76683V10.4078L12.4687 12.5641V11.2486C12.4687 10.9897 12.2588 10.7798 12 10.7798C11.7411 10.7798 11.5313 10.9897 11.5313 11.2486V12.5641L6.70628 10.4078V3.76683L11.5313 5.92308V7.01072C11.5312 7.26961 11.7411 7.47942 12 7.47942ZM12 0.982125L16.6136 3.04397L12 5.10572L7.38635 3.04392L12 0.982125ZM6.23753 11.2252L10.8512 13.287L6.23753 15.3488L1.62396 13.287L6.23753 11.2252ZM0.943801 14.0099L5.78149 16.1718C5.77319 16.2067 5.76878 16.2431 5.76878 16.2806V22.8071L0.943801 20.6508V14.0099ZM6.69354 16.1718L11.5312 14.0099V20.6509L6.70624 22.8072V16.2805C6.70624 16.2431 6.70183 16.2067 6.69354 16.1718ZM12.4687 14.0099L17.3064 16.1718C17.2981 16.2067 17.2937 16.2431 17.2937 16.2806V22.8071L12.4687 20.6508V14.0099ZM18.2311 22.8071V16.2805C18.2311 16.2431 18.2267 16.2067 18.2184 16.1718L23.0561 14.0098V20.6508L18.2311 22.8071Z" fill="#121313"/>
</svg>
