<svg width="50" height="50" viewBox="0 0 50 50" fill="none" xmlns="http://www.w3.org/2000/svg">
<rect x="1" y="1" width="48" height="48" rx="9" stroke="#7E7A7A" stroke-width="2"/>
<g clip-path="url(#clip0)">
<path d="M37.1802 16.7056L36.5178 14.72C36.2656 13.9638 35.5604 13.4557 34.7634 13.4557H29.1964V11.6431C29.1964 10.7372 28.4598 10 27.5541 10H22.456C21.5506 10 20.8138 10.7372 20.8138 11.6431V13.4557H15.2469C14.4497 13.4557 13.7445 13.9638 13.4923 14.72L12.8299 16.7056C12.6791 17.1576 12.7555 17.6582 13.0341 18.0447C13.3126 18.4313 13.7633 18.6623 14.2398 18.6623H14.9322L16.4561 37.5063C16.5694 38.9046 17.7559 40 19.1578 40H31.1615C32.5632 40 33.75 38.9046 33.863 37.5061L35.3869 18.6623H35.7703C36.2468 18.6623 36.6975 18.4313 36.976 18.045C37.2546 17.6584 37.331 17.1576 37.1802 16.7056ZM22.5716 11.7578H27.4385V13.4557H22.5716V11.7578ZM32.1109 37.3644C32.0711 37.8568 31.6541 38.2422 31.1615 38.2422H19.1578C18.6653 38.2422 18.2482 37.8568 18.2084 37.3644L16.6957 18.6623H33.6234L32.1109 37.3644ZM14.6168 16.9044L15.1599 15.2762C15.1723 15.2386 15.2073 15.2135 15.2469 15.2135H34.7634C34.803 15.2135 34.8378 15.2386 34.8504 15.2762L35.3936 16.9044H14.6168Z" fill="#7E7A7A"/>
<path d="M29.3076 37.3021C29.3231 37.303 29.3385 37.3033 29.354 37.3033C29.8184 37.3033 30.2066 36.9393 30.2309 36.4701L31.0562 20.6265C31.0814 20.1417 30.7088 19.7281 30.2242 19.7029C29.7383 19.6771 29.3261 20.0501 29.3007 20.5349L28.4756 36.3786C28.4504 36.8633 28.8228 37.2769 29.3076 37.3021Z" fill="#7E7A7A"/>
<path d="M19.8185 36.4722C19.8441 36.9407 20.2318 37.3033 20.6953 37.3033C20.7113 37.3033 20.7278 37.3028 20.744 37.3019C21.2286 37.2756 21.6001 36.8613 21.5737 36.3765L20.7093 20.5329C20.6829 20.0481 20.2687 19.6766 19.7839 19.7032C19.2994 19.7295 18.9279 20.1438 18.9542 20.6286L19.8185 36.4722Z" fill="#7E7A7A"/>
<path d="M25.0149 37.3033C25.5004 37.3033 25.8938 36.9099 25.8938 36.4244V20.5807C25.8938 20.0953 25.5004 19.7018 25.0149 19.7018C24.5294 19.7018 24.136 20.0953 24.136 20.5807V36.4244C24.136 36.9099 24.5294 37.3033 25.0149 37.3033Z" fill="#7E7A7A"/>
</g>
<defs>
<clipPath id="clip0">
<rect width="30" height="30" fill="white" transform="translate(10 10)"/>
</clipPath>
</defs>
</svg>
