<svg width="50" height="50" viewBox="0 0 50 50" fill="none" xmlns="http://www.w3.org/2000/svg">
<rect x="1" y="1" width="48" height="48" rx="9" stroke="#7E7A7A" stroke-width="2"/>
<path d="M39.8889 24.645C39.6526 24.3012 33.975 16.2498 24.9999 16.2498C17.2985 16.2498 10.4359 24.255 10.1472 24.5962C9.95094 24.8287 9.95094 25.17 10.1472 25.4037C10.4359 25.745 17.2985 33.7501 24.9999 33.7501C32.7013 33.7501 39.5639 25.745 39.8526 25.4037C40.0339 25.1887 40.0501 24.8775 39.8889 24.645ZM24.9999 32.5001C18.8261 32.5001 12.956 26.6125 11.4647 25C12.9535 23.3862 18.8174 17.4999 24.9999 17.4999C32.2238 17.4999 37.3226 23.3787 38.5676 24.9662C37.1301 26.5275 31.2263 32.5001 24.9999 32.5001Z" fill="#7E7A7A"/>
<path d="M24.9998 19.9999C22.2423 19.9999 19.9998 22.2425 19.9998 25C19.9998 27.7575 22.2423 30.0001 24.9998 30.0001C27.7574 30.0001 29.9999 27.7575 29.9999 25C29.9999 22.2425 27.7574 19.9999 24.9998 19.9999ZM24.9998 28.7501C22.9323 28.7501 21.2498 27.0676 21.2498 25.0001C21.2498 22.9325 22.9323 21.25 24.9998 21.25C27.0673 21.25 28.7499 22.9325 28.7499 25.0001C28.7499 27.0676 27.0673 28.7501 24.9998 28.7501Z" fill="#7E7A7A"/>
</svg>
